<?xml version="1.0" ?><!DOCTYPE svg  PUBLIC '-//W3C//DTD SVG 1.1//EN'  'http://www.w3.org/Graphics/SVG/1.1/DTD/svg11.dtd'><svg enable-background="new 0 0 32 32" height="32px" version="1.1" viewBox="0 0 32 32" width="32px" xml:space="preserve" xmlns="http://www.w3.org/2000/svg" xmlns:xlink="http://www.w3.org/1999/xlink"><g id="deviantart"><path d="M25.148,1.5h-5.847l-2.409,4.663c-0.291,0.563-0.872,0.917-1.506,0.917H6.852v7.406   h4.62c0.512,0,0.842,0.542,0.606,0.996L6.852,25.598V30.5h5.837l2.409-4.663c0.291-0.563,0.872-0.917,1.506-0.917h8.545v-7.406   h-4.63c-0.512,0-0.842-0.542-0.606-0.996l5.236-10.135V1.5L25.148,1.5z" fill="#FFFFFF" id="deviantart_1_"/><path d="M25.148,6.383V3h-4.847l-2.177,4.212c-0.434,0.84-1.3,1.368-2.245,1.368H8.352v5.906h3.12   c0.351,0,0.6,0.258,0.657,0.564h0.827c0.512,0,0.841,0.542,0.606,0.996l-5.25,10.16V30.5h4.376l2.409-4.663   c0.291-0.563,0.872-0.917,1.506-0.917h8.545v-7.406h-4.63c-0.512,0-0.842-0.542-0.606-0.996L25.148,6.383z" fill="#65F0CD"/><path d="M12.688,31H6.852c-0.276,0-0.5-0.224-0.5-0.5v-4.902c0-0.08,0.02-0.159,0.056-0.229l5.227-10.117   c0.041-0.08,0.014-0.146-0.006-0.178c-0.02-0.033-0.066-0.088-0.156-0.088h-4.62c-0.276,0-0.5-0.224-0.5-0.5V7.08   c0-0.276,0.224-0.5,0.5-0.5h8.535c0.449,0,0.855-0.248,1.062-0.647l1.514-2.928c0.127-0.246,0.431-0.339,0.674-0.215   c0.245,0.127,0.342,0.429,0.215,0.674l-1.514,2.928c-0.379,0.733-1.126,1.188-1.95,1.188H7.352v6.406h4.12   c0.417,0,0.795,0.212,1.011,0.568c0.216,0.355,0.231,0.788,0.04,1.157L7.352,25.72V30h5.032l2.27-4.392   c0.379-0.733,1.126-1.188,1.95-1.188h8.045v-6.406h-4.13c-0.417,0-0.794-0.212-1.011-0.568c-0.216-0.355-0.231-0.789-0.04-1.158   l5.181-10.027V2h-3.146c-0.276,0-0.5-0.224-0.5-0.5s0.224-0.5,0.5-0.5h3.646c0.276,0,0.5,0.224,0.5,0.5v4.883   c0,0.08-0.02,0.159-0.056,0.229l-5.236,10.135c-0.041,0.08-0.014,0.146,0.006,0.179s0.066,0.088,0.156,0.088h4.63   c0.276,0,0.5,0.224,0.5,0.5v7.406c0,0.276-0.224,0.5-0.5,0.5h-8.545c-0.449,0-0.855,0.248-1.062,0.647l-2.409,4.663   C13.047,30.896,12.875,31,12.688,31z" fill="#455A64"/><g><g><g><g><g><g><path d="M20,1.5C20,1.775,19.775,2,19.5,2l0,0C19.225,2,19,1.775,19,1.5l0,0C19,1.225,19.225,1,19.5,1l0,0         C19.775,1,20,1.225,20,1.5L20,1.5z" fill="#455A64"/></g></g></g></g></g></g></g></svg>